# xmcd
#
# Track frame offsets:
# 150
# 22984
# 46410
# 84428
# 101831
# 115426
# 149081
# 169332
#
# Disc length: 2537 seconds
#
#
# Revision: 0
# Processed by: cddbd v1.5.2PL0 Copyright (c) Steve Scherf et al.
# Submitted via: FreeRIP 2.951 
#
DISCID=6e09e708
DTITLE=Heaven shall burn - Maximum sacrifice
DYEAR=2020
DGENRE=Black Metal
TTITLE0=Protector
TTITLE1=Übermacht
TTITLE2=The sorrow of victory
TTITLE3=Eisenkopf
TTITLE4=Ecowar
TTITLE5=Weakness leaving my heart
TTITLE6=The worlds in me
TTITLE7=Like gods among mortals
EXTD=Metal Hammer exclusive
EXTT0=
EXTT1=
EXTT2=
EXTT3=
EXTT4=
EXTT5=
EXTT6=
EXTT7=
PLAYORDER=
